<svg xmlns="http://www.w3.org/2000/svg" viewBox="0 0 363.12 395.02"><g id="Calque_2" data-name="Calque 2"><g id="Calque_2-2" data-name="Calque 2"><g id="fleur10"><path d="M215.69,315.87c6.5-4.81,14.2-4.91,21.74-5.35a42.43,42.43,0,0,1,10.24.94l-7.28.47c1.88,1.39,2.94,2.32,4.13,3,8.13,4.95,13.92,11.72,16.9,20.89a17.81,17.81,0,0,0,13.81,12.53c18.33,3.74,36.82,6.47,55.56,3.41,17.61-2.87,26.41-11.77,29.55-29.2.62-3.4.57-6.16-3.82-7.18-21.23-5-42.53-9.68-63.6-15.28-33-8.77-62.61-2.18-89.68,18a56.9,56.9,0,0,0-17.6,20.75c-.51,1-1.4,2.41-1.07,3.21,2.25,5.58-1.25,9.92-3,14.54-4.64,12.13-9.56,24.15-14.39,36.22a3.29,3.29,0,0,1-2.28,2.18c.84-2.88,1.57-5.79,2.52-8.62,3.3-9.78,7-19.45,9.86-29.36a17.53,17.53,0,0,0-.39-10.51c-7.93-20.47-22.76-34.9-41.44-45.73a98.33,98.33,0,0,1-10.94-6.75c16.75,4.26,28.43,16.66,42,26.38-3.91-8.58-7.26-17.47-15.73-22.8a61.16,61.16,0,0,1-24.46-29.5c-2.59-6.33-7.55-10-13.83-12.09-3-1-6.07-1.83-9-3C92.54,248.84,87.86,240.74,90,228.54c1,3.75,1.84,7.54,3,11.25s2.93,6.88,8,8.16l-6.78-11.77,1.14-.5c2.49,2.93,4.47,6.73,7.61,8.56s7.29,1.57,11,2.23l.59-1.91-14.83-9.89c.21-.34.42-.68.62-1l32.18,17c-.3-2.44-.5-4-.69-5.54l.74-.26a32.91,32.91,0,0,0,2.23,5.59c1.89,3.06,3.53,6.77,6.32,8.67,6.44,4.38,10.13,10.21,11.09,17.6,1.83,14.09,7.83,26.38,15.29,38.17,3.63,5.74,7.06,11.62,11.88,17.31a23.27,23.27,0,0,0,0-4.34q-9.27-49.36-18.71-98.68c-1.24-6.4-5.77-9.84-12-11.3-17-4-34-8-51-12.14a97.2,97.2,0,0,1-15.42-5.31l42.08,8.71.3-1.32c-12.69-3.34-25.41-6.55-38-10.09a25.39,25.39,0,0,1-9-5.14c18.87,9.15,40.11,7.68,60,13.3L119.4,190.34c.24-.32.48-.63.71-1l15.22,10.54c.28-.26.56-.52.85-.77-2-2.11-3.71-4.86-6.16-6.2a226,226,0,0,0-22.77-11.13c-7.07-2.89-14.56-4.74-21.86-7.08-1.83-.58-3.62-1.28-5.44-1.92.12-.48.23-1,.34-1.44a24.06,24.06,0,0,1,4.1.71c12.23,4.37,24.23,9.55,36.7,13,10,2.78,17.73,8.13,24.61,15.4a16.7,16.7,0,0,0,6,4.18l-13.95-40,1.57-.59,18,46.34,1.26-.46q-3.56-14.44-7.1-28.89l.88-.35q4.15,9.45,8.3,18.91l1.42-.32q-1.26-8.6-2.53-17.17l.74-.19q2.14,7.29,4.3,14.57l1.76-.35-2.52-21.72.8-.31c.86,2.48,2.17,4.9,2.51,7.44,1.91,14.19,4,28.37,5.24,42.63,1.76,21.07,2.73,42.22,4.17,63.33.41,6.05,1.28,12.07,1.93,18.1l1.47.27a13.91,13.91,0,0,0,1.52-3,209.34,209.34,0,0,0,6.19-50.45c0-9,2.09-18.13,3.5-27.16a9,9,0,0,0-1.77-7.67c-2.35-3.19-4.4-7.3-4.69-11.16a55,55,0,0,1,1.47-17.29c3.59-14.17-.14-25.82-10.14-36.11-10.22-10.5-20.34-21.13-30-32.13A53,53,0,0,1,137,106.22c-5.53-13.56-10.42-27.39-15.42-41.17-3-8.39-3.32-14.26-1.22-21.6C119.66,58,125.64,70.33,133,82.24c1,1.65-.13,4.52.31,6.71,2.59,13.07,9.66,23.38,20.42,32.52-.72-8.43-1.36-16-1.87-22,1.55,5,3.54,11.49,5.53,17.93l1.83-.35c.26-3.57.52-7.15.79-10.72.83-10.8,1.4-21.62,2.57-32.38,1.83-16.72-2.16-32.43-7.4-48-.79-2.37-1.53-4.75-2.26-7.14a6.19,6.19,0,0,1,.11-1.53A79.83,79.83,0,0,1,164.4,56.46c.34,14.48-.56,29-.39,43.46a115,115,0,0,0,10,46.08,12.61,12.61,0,0,0,4.62,5.53l-2.82-10.7,1-.42,10.29,19.36,1.47-.44c-7.69-22.51-18.28-44.64-9.32-69.24-3.69,17,0,33.05,6.06,50,1.47-7,2.72-12.92,4-18.86-.25,11.22-4,22.58,5.31,33.63,2.91-8.32,5.54-15.82,8.16-23.32l1.41.43c-2.41,8.74-3.9,17.87-7.42,26.13-6.79,15.95-8.35,32.07-4.33,48.74.68,2.82,3,5.23,4.63,7.82l1.95-.84-1.28-10.31,3.5,5.59V194.7c3.48,12.23,3.1,17.45-3.75,25.62-7.47,8.9-8.41,19.82-7.11,30.91l1.51.55c1-2.43,2.46-4.76,3-7.29,3-13.6,10.75-24.61,19-35.38,4.61-6,8.49-7.41,14.05-4.92,7.13,3.2,10.26,8.51,8.67,15.47-.74,3.21-1.64,6.61-3.4,9.32-7.47,11.52-15.91,22.35-27.91,29.51a33.2,33.2,0,0,0-15.67,21c-1.81,7-3,14.12-4.52,21.18l1.31.61q10.67-9.78,21.34-19.55l1.05,1.1c-2.29,2.17-4.43,4.53-6.9,6.47-14.56,11.38-18.43,26.81-17.4,44.43C190.19,328,195.09,321.85,201,317c26.31-21.43,56.57-27.63,89.28-20.53,17.37,3.77,34.25,9.79,51.41,14.56a108.09,108.09,0,0,0,14.67,2.64c5.49.71,7.27,2.76,6.59,8.3-2,16.53-11.73,27.17-27.91,30.39-20,4-39.7,3-59.41-2.06-8.71-2.23-14.31-7.17-17.85-15.19-4.94-11.2-13-19.17-25.49-20.8-5.42-.7-11.13.89-16.71,1.44ZM194.05,260c.95,0,1.49.16,1.86,0,15.15-7.47,27.6-17.94,35.82-32.91a27.52,27.52,0,0,0,3-8.92c.74-4.88-2-8.26-6.75-7.5a32.92,32.92,0,0,0-13.21,5C199.27,226.27,197.41,243.4,194.05,260ZM171,263.86c0-12.65.37-24.06-.14-35.44-.3-6.75-1.9-13.46-3.14-20.15-.28-1.52-1.47-2.88-2.25-4.32l-1.91.18c-.81,5.29-3,10.78-2.19,15.82,2,13,5.24,25.75,8,38.6C169.7,260.05,170.26,261.5,171,263.86ZM149,291.91c.8-16.49-12-33.15-23.25-30.6C130.92,273.27,137.21,284.15,149,291.91ZM188.84,193l-1.24.27q1.05,9.42,2.09,18.83l1.49-.2ZM128.2,252.9l-8-6C120.8,253.76,122.26,254.84,128.2,252.9Z"/><path d="M235.36,245.68c17.32-1,34.81,4.16,48.24-10.56a16.93,16.93,0,0,1-12.38,9.75A230.51,230.51,0,0,1,246,247.7c-9.11.67-16.12,4.25-21,13.48l16.94-2.42c.07.19.15.38.23.58l-7.34,3.94c.13.43.27.85.4,1.28l10.2-2.69c-3.56,5.18-8.2,5.55-12.8,5.75-7.27.32-14.22,1.35-20.27,8.33,3.56-12.86,8.87-23,17.8-31,1.11-1,2.17-2.08,3.37-3,16.58-12.28,19.3-29.37,16.45-48.17a133.11,133.11,0,0,1,2.54-52.58c4.89-19.5,17.54-33,36.49-40.11,6.38-2.39,13-4.1,19.57-6,1.23-.37,2.85-.76,3.88-.26,6.78,3.25,13.37,1.2,20-.31,8-1.8,10.7.16,11.85,8.21,1.11,7.75,2.47,15.46,3.44,23.23,1.59,12.83-2.26,23.36-13.63,30.44-15.39,9.58-30.47,19.74-46.34,28.44-7.87,4.3-17.15,6.17-25.94,8.6-5.35,1.48-8.34,4-8.65,9.85-.39,7.08-1.45,14.14-2.36,22.45,4.42-2.57,7.78-4.57,11.18-6.51a20.11,20.11,0,0,1,24.74,3.52c1.29,1.36,1.73,3.52,2.77,5.74-1.37,0-1.84.1-1.91,0-6.11-10.81-15.11-14.17-25.34-7.41-9.06,6-16.78,14-25,21.2C236.6,242.84,236.34,243.89,235.36,245.68Zm73.8-123.49-1-.4q4.71-9.54,9.41-19.09l-1.58-1-4.67,6-1.07-.79,3.7-9.24-19.43,12.24L294,109l10.9-8.71L304,98.66c-5.42,1.84-10.88,3.56-16.25,5.53-12.89,4.72-22.73,13-29.06,25.29C251.15,144,250.92,160,250,175.74c-.12,2,.67,4,1,6l1.41.32c1.54-11.85,10.13-19.12,16.85-27.64a11.14,11.14,0,0,1-1.78,4.4c-3.36,5.36-6.84,10.66-10.09,16.08-.75,1.24-.78,2.9-1.14,4.37a28.17,28.17,0,0,0,5.07.44c.85-.07,1.63-1.06,2.45-1.63l21.87-15.24.68.88L270,176.72l5.45-.39-15.23,10c.17.39.34.78.52,1.17l15.48-5.29.28.83-10.83,4.86c.21.67.41,1.34.61,2,3.35-.8,6.82-1.27,10-2.45,22.14-8.14,41.38-21.35,60.21-35.15,7.41-5.42,10.53-13.43,9.51-22.45-1.06-9.42-2.84-18.77-4.66-28.08C340.38,96.93,336.91,95,332,96a18.4,18.4,0,0,0-12.48,9.18C316.08,110.85,312.61,116.51,309.16,122.19Z"/><path d="M197.93,32.58a58.2,58.2,0,0,0,3.44-5.33c2.14-4.22,4.71-8.36,6-12.85,1.93-6.85,4.35-8.45,11.12-6.24a7.37,7.37,0,0,0,5.26-.61c3.19-1.76,6-4.14,9.09-6.16,2.63-1.73,5.56-2.14,7.67.49,2.94,3.67,5.67,3.21,8.92.62A16.84,16.84,0,0,1,253.35.72c14,28.86,15.8,69.45.41,99.73,3-11.39,6-21.73,8.28-32.22,2.41-10.9,1.64-21.83-1-32.68-2.6-10.63-4.92-21.33-7.47-32.43-2,1-3.33,1.52-4.6,2.25C246,7,243.42,7.25,240.84,4.59c-2.13-2.2-4.85-3.41-7.56-1.18-3.39,2.8-8.83,4.13-8,10.32A50.47,50.47,0,0,1,225.79,24q-2.7-6.7-5.41-13.4l-1.91.62,3.18,26-.85.13c-1.49-7.94-2.88-15.9-4.53-23.8-.32-1.52-1.65-2.83-2.52-4.24-1,1.19-2.51,2.23-2.91,3.6-1.71,5.73-3.08,11.56-4.56,17.36a21.16,21.16,0,0,1-1.95,5.54V26.75c-3.41,5.08-3.37,9.56-2.33,14,2,8.58-.1,16.27-5.22,23a177,177,0,0,1-15.93,17.68c3.46-5.12,6.52-10.57,10.48-15.27,3.85-4.55,5.35-8.33,2.24-14.22-3.92-7.42-1.45-15.68,4.48-19.43-5.47,9.32-5.05,18.35,1.44,22C199.08,47,202.17,39.62,197.93,32.58Z"/><path d="M97,108.72c-5.15-1.13-7-5.34-8.39-9.84C86.28,91,81.43,85.52,73.51,82.94a12.36,12.36,0,0,0-2.29-.27c-.35.42-.69.84-1,1.25C75,89,79.76,94,84.52,99.13a7,7,0,0,1,1.27,2.13c3.58,9,10.48,14.79,18.45,19.66q11.72,7.17,23.29,14.56c1.21.77,2,2.24,2.95,3.38l-1.13,1c-2.12-1.75-4-3.87-6.4-5.19-11.45-6.37-23-12.63-34.59-18.69-4.86-2.53-10-3.78-13-9.64-2.55-5-7.74-8.58-11.71-12.85a16.39,16.39,0,0,1-3-3.91c-2.27-4.83.66-10.06,5.95-9.88,8.93.3,16.58,3.67,21.27,11.76C91.11,97,93.93,102.82,97,108.72ZM81.4,106.28l1-1.08c-5.69-8-9.51-17.36-17.14-23.81L62.84,82.5c.48,2.46.13,5.67,1.57,7.24C69.76,95.54,75.69,100.81,81.4,106.28Z"/><path d="M22.63,320.78l8.28-4,.55.89-12.72,8.7,13.44,1.56c0,.4,0,.8.07,1.2L20,330.7c13.37,9.08,26.29,11.3,40.38,5.42a26.48,26.48,0,0,1-24.09,4.17c-12-3.45-23.8-7.37-36.31-11.28a30.14,30.14,0,0,1,4.78-2.93,52.32,52.32,0,0,0,20.7-14.43c12.32-13.72,27.7-20.13,46.1-20,10.15,0,20.31-.75,30.46-.91,4.25-.06,8.51.55,12.76.85l-.06,1.26c-12.36,0-24.72-.1-37.09.05a112.28,112.28,0,0,0-17.41,1C43.53,296.71,31.32,306.36,22.63,320.78Z"/><path d="M30,146.5c1.15,7.95,2,15.3,3.31,22.56,2,11.19,7.22,20.95,16,28.1,18.07,14.71,37.52,26.67,62,26.92a12.86,12.86,0,0,1,3.43.54,7.72,7.72,0,0,1,4,2.53c-6.91-.88-13.79-2.13-20.73-2.54-12.67-.77-22.2-8.51-32.64-14.15C54.43,204.58,43.94,198,37.38,186.92c-6.3-10.6-7.92-22.47-8.79-34.46C28.46,150.66,29.41,148.78,30,146.5Z"/><path d="M123.87,303.84c-17.31-3-28.9,5.84-39.07,17.87l-1-1.5,21.36-20.38-15.68-1.16C96.26,294.24,115.77,297,123.87,303.84Z"/><path d="M223.27,133.36l-9.66,18.09c8.29.37,12.14-5.83,18.16-10.63-2.83,6.9-6.92,10.76-12.69,12.51-6.09,1.84-9.4,5.82-10.9,11.79-1.45,5.78-3.13,11.51-5,18.2C203.17,169.42,213.75,143.37,223.27,133.36Z"/><path d="M195.91,191.48c-.23-22.92,3.53-45,16.34-64.85A178.92,178.92,0,0,0,195.91,191.48Z"/><path d="M227.49,105.85a25.62,25.62,0,0,1,1.85-3.18c4.3-5.5,8.44-11.15,13.07-16.36,7.14-8,12.56-16.72,13-27.89l1.54.38c-.74,4.1-.32,8.94-2.41,12.16-8,12.32-16.81,24.12-25.31,36.12Z"/><path d="M86.39,161.88l44.66,23.26-.9,1.69L85.63,162.94C85.89,162.59,86.14,162.24,86.39,161.88Z"/><path d="M43,140.6l-2.91-3.68-3,1.86c0-5.14-.36-10.72.12-16.22a53.49,53.49,0,0,1,2.87-12.3c.42-1.27,2.54-2,4.49-2.58C31.53,118.33,43,129.59,43,140.6Z"/><path d="M244.56,22.4C245.41,41.13,239.78,57.2,233,73c2.34-8,5.05-15.93,6.91-24C241.8,40.59,242.89,32.06,244.56,22.4Z"/><path d="M75.37,109.34c-6.85-1.61-13.4-8.27-14.31-13.27Z"/><path d="M284.77,327.93c8.67,1,17.34,2.06,26,3.12.4.05.76.4,2.2,1.21C302.55,332.51,293.4,332.22,284.77,327.93Z"/><path d="M215.61,315.77l-23.39,19.94c5.74-8.38,12.27-16.74,23.47-19.84Z"/><path d="M57.57,113.73c-1.94-4.75-4.12-9.42-5.75-14.28-1.42-4.2,1-6.67,6.1-6-5.3.45-4.85,3.4-3.63,6.87,1.52,4.32,2.86,8.7,4.27,13.06Z"/><path d="M206,81.45l-8.48,18.22-.9-.4q4-9.27,8-18.55Z"/><path d="M51.39,120.42l-2.55-17.21,1.65-.24,2.13,17.42Z"/><path d="M286,338.88l20.27,3.38c-.06.34-.11.68-.17,1l-20.25-3.47Z"/></g></g></g></svg>